<?xml version="1.0" encoding="utf-8"?>
<!-- Generator: Adobe Illustrator 24.2.1, SVG Export Plug-In . SVG Version: 6.00 Build 0)  -->
<svg version="1.1" id="Layer_1" xmlns="http://www.w3.org/2000/svg" xmlns:xlink="http://www.w3.org/1999/xlink" x="0px" y="0px"
	 viewBox="0 0 384.17 385.7" style="enable-background:new 0 0 384.17 385.7;" xml:space="preserve">
<g>
	<path d="M384.85,361.67c-0.46,1.4-0.93,2.8-1.39,4.21c-4.01,12.25-15.94,20.13-28.61,18.91c-12.53-1.21-23.16-11.35-24.62-23.48
		c-1.59-13.22,5.53-25.33,17.85-29.52c3.13-1.07,3.98-2.47,3.81-5.5c-0.23-4.32-0.06-8.66-0.06-13.21c-104.37,0-208.34,0-312.7,0
		c0,5.44-0.15,10.65,0.14,15.85c0.05,0.89,1.81,2.04,2.99,2.46c15.89,5.7,23.26,23.27,15.91,38.13
		c-5.47,11.06-17.63,17.18-29.55,14.85c-12.51-2.44-21.53-12.51-22.48-25.1c-0.91-12.03,6.59-23.55,18.24-27.56
		c2.63-0.91,3.63-1.99,3.58-4.91c-0.21-13.72-0.12-27.44-0.15-41.16c0-0.23-0.13-0.46-0.38-1.25c-5.51,0-11.19,0-16.88,0
		c-7.64,0-9.03-1.37-9.04-8.84c0-21.21,0-42.41,0-63.62c0-1.12-0.09-2.26,0.06-3.36c0.44-3.14,2.26-5.02,5.46-5.07
		c3.21-0.05,5.08,1.79,5.62,4.9c0.19,1.09,0.08,2.24,0.08,3.36c0,18.96,0,37.92,0,56.88c0,1.35,0,2.7,0,4.28
		c54.91,0,109.5,0,164.41,0c0-6.63,0-13.28,0-20.51c-1.29,0-2.73,0-4.17,0c-43.79,0-87.59,0-131.38,0c-6.62,0-8.14-1.5-8.14-8.12
		c-0.01-37.17,0-74.35-0.01-111.52c0-6.28-2.21-10.16-6.64-11.86c-6.97-2.68-14,2.31-14.05,10.19c-0.09,16.34-0.03,32.68-0.03,49.02
		c0,5.75-1.77,8.47-5.52,8.55c-3.79,0.07-5.71-2.72-5.7-8.36c0-16.72-0.09-33.43,0.05-50.15c0.09-10.93,8.15-19.62,19.08-21.01
		c10.34-1.32,20.27,5.23,23.08,15.47c0.71,2.6,0.89,5.41,0.93,8.13c0.12,7.86,0.13,15.72-0.01,23.58c-0.04,2.44,0.8,3.41,3.12,4.12
		c14.89,4.53,29.69,9.39,44.6,13.83c10.45,3.11,16.55,9.67,17.93,20.54c0.04,0.35,0.26,0.67,0.47,1.18c22.03,0,44.07,0,66.45,0
		c0.17-1.77,0.26-3.58,0.52-5.37c2.6-17.59,15.77-29.58,33.77-29.96c17.34-0.37,34.68-0.12,52.03-0.07c4.4,0.01,6.85,2.24,6.76,5.78
		c-0.09,3.5-2.48,5.4-7.07,5.41c-16.34,0.03-32.69,0-49.03,0.02c-16.28,0.01-25.49,9.24-25.49,25.54c-0.01,23.7,0,47.4,0,71.1
		c0,1.37,0,2.73,0,4.41c50.62,0,101.05,0,151.68,0c0-33.62,0-67.1,0-101.05c-1.53,0-2.86,0-4.2,0c-14.22,0-28.45,0.01-42.67-0.01
		c-1.37,0-2.78,0.06-4.1-0.23c-2.61-0.57-4.55-2.41-4.07-4.97c0.37-2,1.95-4.02,3.53-5.45c0.89-0.81,2.86-0.55,4.34-0.56
		c14.85-0.03,29.7-0.07,44.54,0.03c2.4,0.02,3.65-0.53,4.69-2.98c3.92-9.21,13.68-14.38,23.1-12.65
		c10.44,1.92,17.75,9.84,17.95,20.43c0.31,15.84,0.13,31.68,0.14,47.52c0.01,21.08,0.01,42.16,0,63.25c0,6.57-1.63,8.18-8.16,8.2
		c-3.97,0.01-7.95,0-12.1,0c-0.13,1.09-0.31,1.92-0.31,2.75c-0.02,13.47,0.04,26.95-0.06,40.42c-0.02,2.24,0.65,3.16,2.85,3.88
		c9.34,3.06,15.22,9.58,18.09,18.91c0.25,0.8,0.6,1.56,0.91,2.34C384.85,355.68,384.85,358.68,384.85,361.67z M39.27,301.28
		c104.41,0,208.38,0,312.3,0c0-5.76,0-11.19,0-16.57c-104.24,0-208.21,0-312.3,0C39.27,290.37,39.27,295.69,39.27,301.28z
		 M177.23,241.05c0-11.34,0-22.37,0-33.4c-44.23,0-88.22,0-132.25,0c0,11.25,0,22.26,0,33.4
		C89.15,241.05,133.04,241.05,177.23,241.05z M372.23,272.95c0.07-1.52,0.18-2.85,0.18-4.17c0.01-33.27,0.01-66.55,0-99.82
		c0-1.37-0.01-2.75-0.18-4.1c-0.52-4.09-2.83-6.84-6.64-8.27c-3.86-1.44-7.35-0.58-10.41,2.1c-2.89,2.53-3.37,5.87-3.37,9.5
		c0.04,33.65,0.02,67.3,0.03,100.94c0,1.21,0.1,2.42,0.17,3.82C358.81,272.95,365.35,272.95,372.23,272.95z M44.92,196.01
		c18.05,0,35.93,0,53.82,0c-0.01-5.04-2.64-8.66-7.64-10.27c-8.52-2.75-17.07-5.4-25.61-8.07c-6.74-2.1-13.5-4.17-20.56-6.35
		C44.92,179.75,44.92,187.77,44.92,196.01z M33.62,341.3c-8.94-0.03-16.21,7.08-16.31,15.96c-0.1,8.96,7.35,16.43,16.34,16.38
		c8.88-0.05,16.06-7.3,16.06-16.22C49.71,348.45,42.6,341.33,33.62,341.3z M341.26,357.35c-0.03,8.96,7.07,16.2,15.96,16.29
		c9.02,0.08,16.44-7.3,16.39-16.3c-0.05-8.9-7.27-16.04-16.22-16.04C348.37,341.3,341.3,348.34,341.26,357.35z"/>
	<path d="M186.45,1.62c5.17,1.26,10.44,2.2,15.48,3.84c32.38,10.56,53.19,42.88,49.53,76.68c-3.67,33.97-30.28,60.97-63.89,64.84
		c-39.91,4.59-75.26-22.76-81.04-62.72c-5.57-38.47,21.69-75.22,60.64-81.75c1.45-0.24,2.88-0.6,4.31-0.9
		C176.46,1.62,181.46,1.62,186.45,1.62z M117.15,74.32c-0.42,33.39,27.15,61.59,60.61,62.01c34.37,0.43,62.29-26.66,62.75-60.91
		c0.46-33.99-26.6-62.06-60.32-62.55C145.51,12.37,117.59,39.59,117.15,74.32z"/>
	<path d="M160.41,56.32c1.16-7.55-1.91-15.49,4.83-21.23c4.73-4.02,10.35-2.77,15.74-3.05c6.11-0.31,12.17,0.74,14.37,6.96
		c1.85,5.21,1.69,11.13,2.49,17.31c2.83,0,6.15-0.02,9.47,0c8.85,0.08,14.12,5.36,14.21,14.25c0.03,2.87,0.05,5.74-0.01,8.6
		c-0.18,8.21-5.47,13.53-13.65,13.69c-3.46,0.07-6.92,0.01-10.76,0.01c-0.26,11.15,2.44,24.16-14.84,24.15
		c-6.57,0-13.65,1.63-18.74-4.7c-4.65-5.79-1.86-12.78-3.15-19.22c-7.22-1.02-15.32,1.95-21.05-4.96
		c-4.6-5.55-3.04-12.16-2.83-18.35c0.11-3.2,1.77-6.67,3.62-9.41c2.11-3.12,5.84-4.06,9.62-4.08
		C153.22,56.32,156.7,56.32,160.41,56.32z M199.22,81.66c2.49,0,4.99-0.09,7.47,0.02c2.5,0.11,3.74-0.79,3.61-3.44
		c-0.11-2.36-0.13-4.74,0.01-7.1c0.17-2.82-1.12-3.71-3.8-3.63c-4.73,0.14-9.47,0.09-14.2,0.02c-4.34-0.06-6.33-2.05-6.47-6.44
		c-0.09-2.61-0.02-5.23-0.02-7.85c0-10.32,0-10.25-10.38-10c-2.53,0.06-3.61,0.82-3.53,3.46c0.14,4.6,0.09,9.22,0.02,13.82
		c-0.08,5.12-1.96,6.98-7.02,7.02c-4.73,0.03-9.47,0.05-14.2-0.01c-2.15-0.03-3.27,0.73-3.19,3.04c0.09,2.61,0.11,5.23-0.01,7.85
		c-0.11,2.47,1.02,3.3,3.36,3.26c4.98-0.08,9.97-0.08,14.95,0c3.79,0.06,5.8,1.91,6.05,5.66c0.19,2.85,0.07,5.73,0.07,8.59
		c0,10.09,0,10,10.03,9.98c2.85-0.01,4.06-0.74,3.91-3.79c-0.22-4.72-0.14-9.47-0.03-14.2c0.1-4.17,2.16-6.14,6.26-6.25
		C194.48,81.61,196.85,81.66,199.22,81.66z"/>
</g>
</svg>
