<?xml version="1.0" encoding="utf-8"?>
<!-- Generator: Adobe Illustrator 24.2.1, SVG Export Plug-In . SVG Version: 6.00 Build 0)  -->
<svg version="1.1" id="Layer_1" xmlns="http://www.w3.org/2000/svg" xmlns:xlink="http://www.w3.org/1999/xlink" x="0px" y="0px"
	 viewBox="0 0 385 278" style="enable-background:new 0 0 385 278;" xml:space="preserve">
<g>
	<path d="M384,272.87c-1.66,3.16-4.33,3.93-7.77,3.93c-46.78,0.02-93.56,0.16-140.34,0.23c-75.35,0.11-150.7,0.18-226.05,0.27
		c-1.37,0-2.77,0.12-4.11-0.12c-3.07-0.56-4.89-2.44-4.94-5.64c-0.05-2.98,2.27-5.33,5.52-5.41c5.61-0.14,11.23-0.07,16.84-0.09
		c1.35,0,2.7,0,4.54,0c0-1.74,0-3.19,0-4.63c0-42.04,0-84.08,0-126.13c0-1.37-0.14-2.79,0.14-4.1c0.63-2.91,2.54-4.59,5.56-4.54
		s4.86,1.77,5.42,4.71c0.23,1.21,0.11,2.49,0.11,3.73c0,42.17,0,84.33,0,126.5c0,1.34,0,2.68,0,4.24c1.43,0.09,2.51,0.21,3.6,0.21
		c25.57-0.02,51.15-0.07,76.72-0.06c2.37,0,3.95-0.04,3.92-3.25c-0.16-22.08-0.14-44.16-0.2-66.24c0-0.73-0.16-1.45-0.29-2.54
		c-3.04,0-6,0-8.96,0c-15.59,0.03-31.19,0.09-46.78,0.07c-8.95-0.02-13.11-4.2-13.13-13.03c-0.04-18.34-0.06-36.68-0.05-55.02
		c0-8.71,4.09-12.89,12.8-12.93c17.09-0.09,34.18-0.07,51.27-0.1c1.49,0,2.98,0,4.76,0c0-7.74,0-15.27,0-22.98
		c-27.83,0-55.58,0-83.66,0c0,5.24,0.02,10.21-0.01,15.17c-0.02,4.5-1.94,6.95-5.43,7.06c-3.67,0.11-5.76-2.42-5.79-7.07
		c-0.03-4.96-0.01-9.92-0.01-15.21c-3.43,0-6.52,0.04-9.6-0.01c-10.83-0.18-16.9-6.23-17.04-17c-0.05-3.87-0.05-7.73-0.02-11.6
		c0.08-10.94,6.25-17.1,17.26-17.13c33.43-0.09,66.87-0.14,100.3-0.2c1.23,0,2.46,0,4.23,0c0-4.79,0-9.35,0-13.92
		c0-3.87-0.04-7.74,0-11.6c0.11-9.69,6.49-16.24,16.2-16.32C155.1,1.99,171.2,2.02,187.29,2c18.71-0.02,37.43-0.04,56.14-0.04
		c11.9,0,17.83,6,17.86,18.01c0.02,7.61,0.06,15.22,0.1,22.83c0,0.22,0.18,0.43,0.46,1.05c1.16,0,2.5,0,3.83,0
		c12.35-0.01,24.7-0.02,37.05-0.03c6.38,0,9.17,1.75,9.1,5.71c-0.07,3.91-2.78,5.52-9.28,5.52c-12.35,0.01-24.7,0.02-37.05,0.03
		c-1.23,0-2.45,0-3.93,0c0,7.8,0,15.32,0,23.24c1.39,0,2.6,0,3.81,0c33.43-0.03,66.87-0.05,100.3-0.09
		c5.09-0.01,6.29-1.25,6.31-6.46c0.01-3.37,0.01-6.74,0-10.1c-0.02-5.5-1.11-6.63-6.49-6.63c-10.23,0-20.46,0.02-30.69,0.02
		c-1.25,0-2.53,0.13-3.73-0.1c-3.06-0.58-4.93-2.41-4.84-5.66c0.09-3.24,1.98-5.34,5.1-5.37c12.85-0.14,25.71-0.36,38.54,0.12
		c7.33,0.27,13.05,7.16,13.3,14.78c0.18,5.23,0.19,10.48,0,15.72c-0.29,8.19-6.69,14.55-14.9,14.9c-3.71,0.16-7.43,0.03-11.57,0.03
		c0,1.98,0,3.56,0,5.14c0.06,41.42,0.14,82.84,0.17,124.25c0,1.72-0.03,3.54-0.56,5.15c-0.89,2.7-3.25,4.28-5.82,3.34
		c-1.87-0.68-3.45-2.75-4.62-4.54c-0.64-0.97-0.2-2.67-0.21-4.04c-0.07-41.29-0.14-82.59-0.21-123.88c0-1.61,0-3.23,0-5.11
		c-27.99,0-55.74,0-83.8,0c0,7.48,0,14.99,0,22.98c1.37,0,2.7,0,4.02,0c17.22-0.01,34.43-0.03,51.65-0.03
		c9.26,0,13.43,4.2,13.44,13.53c0.03,18.09,0.04,36.18,0.04,54.27c0,8.87-4.18,13.08-13.03,13.1c-17.22,0.04-34.43,0.04-51.65,0.05
		c-1.36,0-2.71,0-4.37,0c0,24.03,0,47.78,0,71.79c27.96,0,55.71,0,83.94,0c0-6.06-0.1-11.88,0.03-17.7
		c0.09-4.26,3.59-6.81,7.34-5.48c2.86,1.02,3.84,3.35,3.84,6.21c0,5.48,0,10.96,0,17.04c4.11,0,8.04,0,11.96,0
		c2.62,0,5.25,0.12,7.86-0.03c3.17-0.18,5.44,1.23,7.25,3.64C384,270.37,384,271.62,384,272.87z M148.34,265.7c0-1.74,0-3.22,0-4.69
		c-0.03-31.06-0.08-62.12-0.07-93.18c0-11.25,7.21-18.75,18.3-18.85c17.21-0.15,34.43-0.16,51.64-0.08
		c8.35,0.04,14.96,4.9,17.11,12.53c0.73,2.59,0.88,5.41,0.89,8.13c0.1,30.44,0.13,60.88,0.17,91.31c0,1.46,0,2.93,0,4.56
		c4.81,0,9.2,0,13.96,0c0-1.62,0-2.97,0-4.32c-0.1-80.34-0.19-160.67-0.29-241.01c-0.01-5.87-1.06-6.92-6.99-6.92
		c-34.05,0.04-68.11,0.08-102.16,0.13c-5.67,0.01-6.86,1.17-6.85,6.73c0.1,80.46,0.21,160.92,0.31,241.38c0,1.34,0,2.69,0,4.27
		C139.1,265.7,143.4,265.7,148.34,265.7z M224.92,265.57c0.1-1.01,0.22-1.74,0.22-2.46c-0.04-31.66-0.06-63.31-0.15-94.97
		c-0.02-5.85-2.35-8.05-8.29-8.05c-15.95-0.01-31.9,0.04-47.86,0.07c-7.4,0.01-9.35,1.94-9.35,9.24
		c0.02,30.66,0.05,61.32,0.08,91.98c0,1.34,0,2.67,0,4.2C181.59,265.57,203.19,265.57,224.92,265.57z M261.68,124.18
		c0,19.48,0,38.72,0,57.94c19.42,0,38.54,0,57.56,0c0-19.55,0-38.78,0-57.94C299.88,124.18,280.85,124.18,261.68,124.18z
		 M65.22,124.39c0,19.65,0,38.78,0,57.95c19.32,0,38.4,0,57.49,0c0-19.51,0-38.64,0-57.95C103.46,124.39,84.46,124.39,65.22,124.39z
		 M122.63,55.23c-1.55,0-2.89,0-4.23,0c-10.22,0-20.44-0.01-30.66,0c-22.81,0.04-45.61,0.09-68.42,0.14
		c-6.13,0.01-7.06,0.97-7.06,7.25c0,2.87,0.01,5.73,0.02,8.6c0.02,6.59,0.77,7.36,7.28,7.35c33.15-0.04,66.3-0.09,99.45-0.14
		c1.2,0,2.39-0.13,3.63-0.2C122.63,70.47,122.63,63.06,122.63,55.23z"/>
	<path d="M209.73,97.78c0,6.14,0.03,11.73-0.01,17.31c-0.05,8.01-3.93,11.89-11.92,11.94c-3.99,0.03-7.98,0.05-11.97,0
		c-6.95-0.09-11.13-4.16-11.28-11.18c-0.12-5.84-0.03-11.68-0.03-17.96c-5.53,0-10.72,0-15.91,0c-9.63,0.01-13.32-3.67-13.34-13.3
		c-0.01-3.37-0.04-6.73,0-10.1c0.09-7.58,4.23-11.73,11.88-11.82c5.59-0.07,11.19-0.01,17.31-0.01c0-4.41,0.23-8.62-0.04-12.79
		c-0.85-13.25,4.25-17.29,16.26-16.48c2.73,0.19,5.49-0.09,8.22,0.03c6.53,0.27,10.59,4.45,10.74,10.97
		c0.07,2.99,0.02,5.98,0.02,8.97c0,2.86,0,5.71,0,9.21c4.34,0,8.52,0.2,12.67-0.04c11.9-0.69,17.56,2.43,16.6,16.45
		c-0.19,2.85,0.05,5.74-0.07,8.6c-0.26,5.92-4.33,10.02-10.28,10.15C222.5,97.89,216.4,97.78,209.73,97.78z M156.7,86.62
		c7.12,0,14.06-0.01,21,0c6.35,0.01,8.02,1.65,8.04,7.9c0.02,6.95,0,13.89,0,21.03c4.44,0,8.45,0,12.74,0
		c0-7.59-0.06-14.92,0.02-22.25c0.05-4.53,2.15-6.56,6.69-6.71c1.74-0.06,3.49-0.01,5.23-0.01c5.68,0,11.36,0,17.05,0
		c0-4.49,0-8.43,0-12.73c-7.15,0-14.09,0.01-21.04,0c-6.28-0.01-7.97-1.69-7.98-7.94c-0.01-6.95,0-13.89,0-20.97
		c-4.44,0-8.46,0-12.74,0c0,6.98,0,13.69,0,20.41c0,7.17-1.35,8.55-8.43,8.55c-6.81,0.01-13.62,0-20.58,0
		C156.7,78.31,156.7,82.24,156.7,86.62z"/>
</g>
</svg>
