<?xml version="1.0" encoding="utf-8"?>
<!-- Generator: Adobe Illustrator 24.2.1, SVG Export Plug-In . SVG Version: 6.00 Build 0)  -->
<svg version="1.1" id="Layer_1" xmlns="http://www.w3.org/2000/svg" xmlns:xlink="http://www.w3.org/1999/xlink" x="0px" y="0px"
	 viewBox="0 0 387.23 314.72" style="enable-background:new 0 0 387.23 314.72;" xml:space="preserve">
<g>
	<path d="M385.62,93.95c-0.52,1.78-1.03,3.57-1.57,5.35c-4.45,14.67-18.64,24.51-33.95,23.35c-2.21-0.17-3.49,0.32-4.46,2.27
		c-0.83,1.66-1.93,3.2-2.94,4.78c-4.28,6.69-4.49,13.5-0.88,20.56c4.77,9.32,9.44,18.68,14.11,28.05
		c6.99,14.04,4.44,27.77-7.13,38.3c-10.61,9.65-21.32,19.2-31.83,28.96c-1.33,1.24-2.37,3.51-2.39,5.32
		c-0.19,18.09-0.13,36.18-0.16,54.26c-0.02,8.44-3.61,12-12.1,12c-95.93,0.01-191.86,0.01-287.79,0c-8.43,0-12.07-3.62-12.08-12.04
		C2.41,244.98,2.4,184.85,2.33,124.73c-0.01-4.99,1.45-9.2,4.85-12.93c0.99-1.09,1.31-3.12,1.32-4.72
		c0.08-26.07,0.02-52.14,0.07-78.22C8.6,16.49,15.52,7.32,26.75,4.6c1.68-0.41,3.45-0.57,5.18-0.58C41.91,3.97,51.89,3.96,61.87,4
		c4.24,0.02,6.53,1.98,6.6,5.45c0.07,3.55-2.43,5.77-6.73,5.79c-9.61,0.05-19.21-0.04-28.82,0.04C25.11,15.34,20.04,20.02,20,27.73
		c-0.13,25.95-0.05,51.89-0.04,77.84c0,0.48,0.15,0.96,0.25,1.64c4.64,0,9.19,0,13.53,0c4.42-8.45,2.79-16.95,0.63-25.47
		c-0.68-2.65-1.25-5.34-1.81-8.02c-1.92-9.26,4.62-15.86,13.84-13.97c4.39,0.9,8.82,1.69,13.14,2.88c5.1,1.41,10.15,1.4,15.12-0.11
		c8.28-2.51,16.76-2.22,25.22-2.09c2.51,0.04,3.84-0.31,4.59-3.3c3.21-12.82,14.45-21.91,27.77-22.15
		c17.33-0.31,34.68-0.36,52.01,0.01c16.46,0.35,28.72,13.32,29.02,30.14c0.16,8.71,0.03,17.43,0.03,26.09
		c18.7,3.7,21.26,22.76,14.19,34.59c-3.27,5.47-7.49,9.89-13.2,12.9c-1.12,0.59-2.25,1.93-2.57,3.14c-2.51,9.48-7.09,17.72-13.68,25
		c-1.36,1.5-1.47,4.13-2.42,7.09c2.46,0,3.9-0.04,5.33,0.01c10.83,0.33,21.76-0.11,32.47,1.2c13.11,1.61,24.59,7.77,35.63,17.21
		c0.96-6.92,2.41-12.96,2.51-19.01c0.32-18.71,0.17-37.42,0.07-56.13c-0.02-3.34-0.29-6.78-1.15-9.99
		c-2.31-8.67-2.34-17.19,0.26-25.79c0.99-3.28,1.43-6.72,2.22-10.61c-6.65,1.4-12.72,2.59-18.74,3.96
		c-6.95,1.58-13.35-0.76-19.71-2.83c-2.62-0.85-3.6-3.45-2.96-6.19c0.63-2.74,2.55-4.24,5.38-4.31c1.1-0.03,2.31,0.08,3.31,0.49
		c6.87,2.82,13.68,1.7,20.53-0.08c3.13-0.82,6.29-1.56,9.47-2.15c9.36-1.73,15.63,4.69,13.73,14c-0.82,4.03-1.34,8.16-2.59,12.05
		c-2.33,7.28-1.39,14.25,1.28,21.65c4.7,0,9.64-0.02,14.59,0c10.71,0.06,17.22,6.55,17.23,17.29c0.02,34.18,0.01,68.36,0.01,102.54
		c0,1.35,0,2.7,0,4.64c1.16-0.82,1.96-1.27,2.62-1.87c8.06-7.26,16.13-14.52,24.14-21.84c7.81-7.14,9.29-15.42,4.5-24.98
		c-4.4-8.8-8.68-17.67-13.31-26.35c-6.36-11.91-6.01-23.36,1.53-34.58c0.69-1.03,1.31-2.12,2.07-3.37
		c-1.13-0.82-2.23-1.59-3.31-2.39c-8.48-6.34-13.53-14.72-13.72-25.38c-0.29-16.96-0.2-33.93-0.11-50.89
		c0.03-6.45,4.41-10.53,10.99-10.7c2.74-0.07,5.49-0.02,8.23-0.02c2.61,0,5.22,0,8.15,0c0-4.71,0-9.24,0-14.26c-1.6,0-3.17,0-4.75,0
		c-83.08,0-166.16,0-249.24-0.01c-1.49,0-3.04,0.11-4.46-0.22c-2.88-0.68-4.61-2.68-4.45-5.65c0.16-3.09,1.95-5.05,5.19-5.34
		c0.99-0.09,1.99-0.05,2.99-0.05c95.31,0,190.61,0.01,285.92-0.06c3.54,0,6.39,0.61,8.14,3.93c0,1.25,0,2.5,0,3.74
		c-1.96,3.05-4.82,3.8-8.3,3.7c-6.4-0.19-12.81-0.05-19.12-0.05c0,5.06,0,9.58,0,14.26c4.9,0,9.5,0.22,14.07-0.05
		c6.54-0.38,11.02,2.17,13.35,8.34C385.62,56.52,385.62,75.23,385.62,93.95z M303.13,305.68c0-6.51-0.01-12.84,0-19.16
		c0.03-11.78-4.38-21.49-13.18-29.37c-22.49-20.13-48.84-29.74-78.93-29.65c-33.93,0.09-67.86,0.02-101.79,0.02
		c-5.76,0-8.45-1.76-8.52-5.53c-0.06-3.89,2.76-5.77,8.71-5.77c34.43,0,68.85-0.01,103.28,0c23.2,0.01,44.86,5.73,64.82,17.65
		c0.89,0.53,1.84,0.96,2.94,1.52c-2.85-22.66-22.47-44.05-46-48.34c-11.52-2.1-23.56-1.3-35.37-1.78c-0.82-0.03-1.65,0.2-2.41,0.31
		c-1.44,11.48-6.74,17.28-16.43,17.41c-14.59,0.2-29.19,0.15-43.78,0.02c-7.68-0.07-13.86-4.77-15.69-11.57
		c-0.51-1.9-0.66-3.91-1.03-6.19c-8.06,0-16.15-0.02-24.24,0c-26.3,0.09-49.84,17.39-57.76,42.46c-0.76,2.42-1.26,4.93-2.08,8.16
		c1.88-1.07,2.95-1.66,4-2.29c12.02-7.08,24.81-12.14,38.52-14.79c3.73-0.72,6.55,0.95,7.22,4.09c0.69,3.23-1.08,5.8-4.75,6.85
		c-0.48,0.14-0.96,0.27-1.45,0.37c-19.32,4.1-36.28,12.88-51.14,25.82c-5.35,4.66-9.79,9.97-12.12,16.77
		c-3.7,10.8-1.68,21.9-2.16,32.98C110.43,305.68,206.56,305.68,303.13,305.68z M159.83,172.46c1.55-0.2,4.55-0.38,7.46-1.02
		c18.02-3.96,30.98-17.61,34.06-35.91c0.55-3.25,1.64-5.62,5.16-6.42c7.06-1.61,13.29-8.98,13.13-16.18
		c-0.06-2.65-1.32-5.5-2.74-7.82c-1.21-1.97-3.16-2.81-5.47-0.32c-1.09,1.17-3.93,1.95-5.28,1.35c-1.72-0.77-2.98-2.99-3.96-4.83
		c-0.58-1.1-0.21-2.69-0.28-4.05c-0.6-12.34-9.22-21.21-21.47-21.41c-14.95-0.25-29.92-0.23-44.87,0.04
		c-10.37,0.19-18.42,7.32-20.4,17.5c-0.47,2.42,0.06,5.1-0.68,7.38c-0.67,2.04-2.12,4.54-3.88,5.29c-1.49,0.63-4.3-0.47-5.85-1.67
		c-1.67-1.3-2.93-1.46-4.14-0.14c-1.31,1.41-2.64,3.06-3.23,4.85c-2.41,7.27,3.97,18.25,11.77,19.84c4.08,0.83,5.59,3.09,6.19,6.77
		C118.82,156.99,137.01,172.5,159.83,172.46z M103.22,71.74c-9.91-0.03-19.3-0.38-28.62,2.28c-4.02,1.15-8.64,0.98-12.87,0.47
		c-5.97-0.73-11.84-2.34-18.12-3.66c0.66,3.18,1.03,5.89,1.79,8.49c2.81,9.66,3.53,19.31,0.43,29.06c-0.56,1.75-0.77,3.68-0.78,5.53
		c-0.04,20.96-0.17,41.91,0.13,62.86c0.07,4.92,1.66,9.81,2.62,15.1c14.63-10.66,22.14-14.87,34.79-16.6
		c9.7-1.33,19.63-0.96,29.46-1.31c2.58-0.09,5.16-0.01,7.67-0.01c0.77-3.6,0.14-6.07-2.23-8.55c-6.05-6.32-10.06-13.93-12.18-22.42
		c-0.6-2.4-1.67-3.71-3.86-4.92c-8.94-4.95-14.32-12.64-15.83-22.76c-0.8-5.33,0.44-10.41,3.35-15.02
		c3.33-5.27,8.28-7.99,14.24-8.82C103.22,84.81,103.22,78.49,103.22,71.74z M13.65,254c2.45-2.32,4.1-4.22,6.08-5.67
		c2.96-2.17,4.06-4.87,4.27-8.51c0.6-10.62,4.23-20.34,9.14-29.74c3.33-6.37,4.46-13.24,2.77-20.59c-1.25-5.41-2.01-11.05-2.1-16.6
		c-0.27-16.7-0.09-33.41-0.1-50.12c0-1.31-0.11-2.61-0.18-4.07c-4.46,0-8.44,0-12.43,0c-6.27,0.01-7.46,1.17-7.46,7.34
		c0,41.27,0,82.54,0,123.8C13.65,250.95,13.65,252.05,13.65,254z M296.92,247.9c4.44-2.55,6.48-5.97,6.43-11.65
		c-0.3-36.55-0.15-73.1-0.16-109.66c0-1.12,0.07-2.25-0.05-3.37c-0.27-2.55-1.71-4.32-4.27-4.41c-5.19-0.19-10.39-0.06-15.89-0.06
		c0,1.76,0,3.11,0,4.46c0,16.47,0.18,32.94-0.1,49.4c-0.1,5.68-0.98,11.42-2.18,16.98c-1.61,7.46-0.52,14.41,2.98,20.94
		c5.02,9.37,8.38,19.21,9,29.81C292.89,243.82,293.71,246.38,296.92,247.9z M330.18,67.91c0,7.63-0.11,14.85,0.03,22.06
		c0.2,10.69,8.27,19.83,18.51,21.2c11.1,1.48,22.3-4.89,24.35-15.54c1.73-8.99,1.22-18.42,1.7-27.72
		C359.38,67.91,344.98,67.91,330.18,67.91z M201.87,72.57c0-3.62,0.18-6.23-0.03-8.8c-0.86-10.21-8.12-17.37-18.4-17.51
		c-16.82-0.23-33.65-0.24-50.47,0.01c-11.8,0.17-21.16,10.57-17.57,25.75c7.31-6.23,15.93-7.86,25.17-7.73
		c11.09,0.16,22.19,0.19,33.28-0.01C183.78,64.1,193.27,65.19,201.87,72.57z M374.01,56.35c0-5.39,0-10.4,0-15.33
		c-14.73,0-29.15,0-43.54,0c0,5.24,0,10.26,0,15.33C345.11,56.35,359.43,56.35,374.01,56.35z M131.45,176.88
		c0,3.62-0.08,6.69,0.02,9.75c0.11,3.32,1.99,4.97,5.26,5.02c3.36,0.05,6.72,0.03,10.09,0.03c10.71,0,21.42-0.01,32.13,0
		c2.99,0,5.71-0.65,6.02-4.14c0.31-3.38,0.07-6.8,0.07-10.62C167.03,186.02,149.46,185.94,131.45,176.88z"/>
	<path d="M157.52,133.35c3.35,0,6.71-0.11,10.06,0.03c3.3,0.14,5.34,1.89,5.56,5.31c0.2,3.23-1.91,5.76-5.4,5.86
		c-6.83,0.2-13.66,0.19-20.49,0.02c-3.49-0.09-5.69-2.6-5.63-5.72s2.26-5.31,5.85-5.48c3.35-0.16,6.71-0.03,10.06-0.03
		C157.52,133.34,157.52,133.35,157.52,133.35z"/>
	<path d="M181.62,102.39c3.77,0.11,6.66,3.3,6.48,7.14c-0.18,3.72-3.08,6.38-6.86,6.29c-3.66-0.09-6.59-3.06-6.59-6.67
		C174.65,105.48,177.94,102.28,181.62,102.39z"/>
	<path d="M135.2,102.4c3.58-0.04,6.71,3.01,6.79,6.63c0.08,3.7-2.78,6.72-6.48,6.84c-3.91,0.13-6.97-2.82-6.95-6.72
		C128.57,105.49,131.58,102.44,135.2,102.4z"/>
</g>
</svg>
