<?xml version="1.0" encoding="utf-8"?>
<!-- Generator: Adobe Illustrator 24.2.1, SVG Export Plug-In . SVG Version: 6.00 Build 0)  -->
<svg version="1.1" id="Layer_1" xmlns="http://www.w3.org/2000/svg" xmlns:xlink="http://www.w3.org/1999/xlink" x="0px" y="0px"
	 viewBox="0 0 373.06 372.94" style="enable-background:new 0 0 373.06 372.94;" xml:space="preserve">
<g>
	<path d="M311.6,187.89c0-18.98,0-36.81,0-54.94c-18.37-2.86-32.5-12.07-41.46-28.51c-6.2-11.38-7.93-23.57-5.18-36.24
		c5.79-26.65,29.66-44.62,56.59-42.78c26.34,1.8,47.86,23.2,49.91,49.69c2.03,26.31-16.01,53.12-47.53,57.85
		c0,19.85,0,39.74,0,59.71c3.63,0.58,7.33,0.94,10.92,1.8c23.15,5.52,39.11,27.86,36.56,51.02c-2.72,24.7-22.8,43.24-47.32,43.39
		c-24.58,0.15-49.16,0.04-73.73,0.04c-1.35,0-2.71,0-4.1,0c-0.46,6.52,0.04,13.07-1.61,19.02c-1.6,5.77-5.4,10.92-8.38,16.61
		c15.37,11.4,22.57,27.62,21.42,47.96c-47.78,0-95.48,0-143.52,0c-1.29-20.17,5.91-36.42,22.55-48.85
		c-10.97-9.1-11.45-21.48-10.5-34.73c-1.68,0-3,0-4.31,0c-22.46,0-44.91,0.06-67.37-0.02C23.59,288.8-0.37,264.2,0.26,233.3
		c0.51-25.3,20.3-47.71,45.45-51.47c0.61-0.09,1.23-0.19,2.14-0.34c0-16.14,0-32.26,0-48.38C13.54,128.01-3.77,96.7,0.98,69.79
		C5.63,43.47,29.64,24.21,57.14,25.4c26.54,1.15,48.94,23.18,50.8,49.99c1.88,27.07-16.97,53.11-47.5,57.51c0,9.2,0,18.44,0,28.33
		c13.12-20.41,31.08-33.38,54.38-38.23c23.17-4.82,44.76-0.26,64.89,12.96c0-9.27,0-18.04,0-26.78
		c-36.35-5.83-50.64-37.9-47.3-60.35c4.16-27.92,26.45-47.57,53.86-47.44c26.1,0.12,48.76,19.96,52.94,45.18
		c4.11,24.83-11.39,57.06-47.31,62.64c0,9.14,0.34,18.37-0.12,27.55c-0.31,6.32,0.65,11.64,5.63,16.02
		c2.01,1.76,3.32,4.32,5.15,6.78c18.53-13.14,38.84-17.72,60.93-12.1C285.48,153.02,301.09,166.64,311.6,187.89z M193.35,167.72
		c-0.67-1.07-1.33-2.27-2.13-3.36c-17.83-24.2-41.83-35.04-71.38-29.96c-30.06,5.17-49.13,23.77-57.43,53.19
		c-1.57,5.57-1.42,5.61-7.18,5.5c-23.95-0.46-43.35,18.8-42.98,42.68c0.35,22.4,18.57,40.82,41.17,41.08
		c23.45,0.27,46.9,0.07,70.35,0.06c0.7,0,1.4-0.2,2.25-0.33c0-7.54-0.06-14.89,0.03-22.24c0.04-3.23,0.22-6.48,0.63-9.69
		c3.61-28.08,27.98-50.42,56.13-51.55c29.41-1.17,55.8,18.37,61.24,46.61c2.03,10.52,1.26,21.58,1.74,32.39
		c0.07,1.56,0.01,3.12,0.01,4.74c27.14,0,53.71,0.01,80.27-0.03c1.48,0,2.97-0.35,4.44-0.61c19.08-3.39,31.82-22.1,28.42-41.76
		c-3.26-18.9-22-32.26-40.73-28.87c-4.22,0.76-8.33,2.18-12.72,3.36c-5.56-26.12-20.11-44.23-46.5-50.15
		c-26.48-5.94-47.58,3.91-63.63,25.39c-3.28-2.16-6.39-4.21-9.87-6.5C188.19,174.28,190.71,171.07,193.35,167.72z M221.85,246.68
		c0,12.49,0.04,24.2-0.01,35.91c-0.05,9.86-4.04,17.84-11.75,23.96c-1.34,1.06-2.85,1.72-2.17,4.13c0.65,2.3,1.5,3.68,4.02,4.07
		c2.69,0.42,5.29,1.55,7.99,1.88c1.79,0.22,4.02,0.12,5.48-0.77c5.76-3.54,8.42-8.97,8.43-15.71c0.01-14.85,0.05-29.7-0.03-44.55
		c-0.02-3.48-0.19-6.99-0.69-10.43c-3.46-23.8-25.39-41.29-50.1-40.07c-23.72,1.17-44.15,21.36-44.86,45.09
		c-0.51,17.08-0.22,34.19-0.07,51.28c0.06,6.45,3.28,11.43,8.8,14.73c1.15,0.69,2.85,1,4.15,0.75c3.3-0.62,6.63-1.37,9.71-2.65
		c1.35-0.56,2.54-2.4,2.98-3.9c0.28-0.94-0.65-2.74-1.58-3.45c-6.52-5.06-10.5-11.57-11.86-19.69c-0.02-0.12-0.06-0.25-0.06-0.37
		c0-13.19,0-26.37,0-40.17c18.02,2.65,27.79-8.32,35.78-23.13C193.87,238.71,203.67,249.16,221.85,246.68z M35.59,88.53
		C27.87,76,28.55,64.39,37.81,55.75c8.5-7.92,21.32-8.65,30.6-1.72c4.56,3.41,7.54,7.9,8.95,13.42c2.07,8.09-0.24,15.21-4.71,21.03
		c5.55,4.73,10.81,9.22,16.07,13.71c9.53-11.2,11.86-35.84-5.07-52.69C67.4,33.33,41.49,33.2,24.96,49.21
		c-16.95,16.43-15.24,41.2-5.39,53C24.81,97.74,30.06,93.25,35.59,88.53z M352.72,101.68c9.6-11.64,10.95-36.53-6.14-52.72
		c-16.76-15.88-42.68-15.46-58.68,0.82c-16.71,17-14.16,41.53-5.29,51.83c2.65-2.12,5.34-4.36,8.13-6.46
		c2.85-2.14,5.8-4.13,8.7-6.17c-8.04-12.59-7.42-24.29,1.68-33.01c8.27-7.93,20.94-8.9,30.27-2.33c4.66,3.29,7.79,7.7,9.34,13.16
		c2.35,8.29,0.07,15.67-4.85,22.13c3.14,2.22,6.03,4.17,8.8,6.27C347.46,97.3,350.11,99.56,352.72,101.68z M220.49,78.24
		c9.74-11.56,11.68-36.37-5.36-52.97c-16.43-16.01-42.31-15.93-58.69,0.26c-16.86,16.66-14.73,41.31-5.11,52.71
		c5.33-4.54,10.67-9.07,16.05-13.65c-7.8-12.48-7.1-24.18,2.22-32.81c8.45-7.82,21.03-8.62,30.3-1.9c4.62,3.35,7.67,7.8,9.15,13.29
		c2.21,8.19-0.1,15.44-4.63,21.38C209.98,69.27,215.24,73.76,220.49,78.24z M162.13,258.73c0,8.89-0.53,17.88,0.15,26.78
		c0.67,8.67,8.39,15.07,17.09,15.35c4.36,0.14,8.73,0.14,13.08,0c8.71-0.27,16.42-6.65,17.1-15.34c0.69-8.89,0.15-17.88,0.15-26.39
		c-4.55-1.8-9.02-3.09-12.98-5.28c-3.95-2.19-7.4-5.3-11.1-8.02C176.22,254.21,174.5,255.16,162.13,258.73z M172.44,360.6
		c-2.43-5.56-5.25-10.85-7.06-16.47c-1.81-5.61-2.61-11.54-3.85-17.33c-19.06,3.29-35.76,19.7-34.41,33.8
		C142.27,360.6,157.41,360.6,172.44,360.6z M244.87,360.64c0.2-15.41-19.05-33.77-35.16-33.45c-0.75,11.94-4.37,23.05-11.06,33.61
		c15.14,0,29.58,0,44.02-0.01C243.41,360.79,244.14,360.69,244.87,360.64z M160.33,88.05c15.67,13.56,40.56,10.66,51.04-0.28
		C199.84,68.37,171.45,68.42,160.33,88.05z M28.56,111.98c15.61,13.57,40.47,10.72,51.06-0.22C68.2,92.34,39.94,92.37,28.56,111.98z
		 M343.51,111.95c-6.74-10.26-15.98-15.43-28.04-14.6c-10.28,0.71-18.15,5.74-23.47,14.66C306.29,124.06,328.9,124.08,343.51,111.95
		z M197.88,49.32c0.02-6.5-5.34-11.94-11.84-12c-6.52-0.07-11.98,5.23-12.09,11.74c-0.12,6.66,5.37,12.23,12.02,12.2
		C192.46,61.22,197.86,55.82,197.88,49.32z M54.12,61.28c-6.5,0.01-11.9,5.4-11.93,11.9c-0.03,6.51,5.31,11.95,11.8,12.04
		c6.64,0.09,12.19-5.45,12.13-12.09C66.05,66.63,60.62,61.26,54.12,61.28z M317.59,85.22c6.49,0.05,11.96-5.3,12.06-11.78
		c0.1-6.5-5.2-12.01-11.69-12.15c-6.66-0.15-12.24,5.31-12.24,11.97C305.72,79.75,311.09,85.17,317.59,85.22z M198.28,324.65
		c-0.63-4.12-1.22-7.93-1.81-11.8c-7.21,0-13.88,0-21.1,0c-0.59,3.86-1.18,7.68-1.81,11.8
		C182.04,324.65,189.79,324.65,198.28,324.65z M175.76,336.95c1.94,7.84,5.19,14.47,10.18,20.71c5.01-6.47,8.33-13.06,10.1-20.71
		C189.12,336.95,182.69,336.95,175.76,336.95z"/>
	<path d="M145.21,146.97c-0.79,3.48-0.54,7.81-2.57,9.7c-1.74,1.61-6.08,0.5-9.27,0.45c-22.32-0.35-40.77,13.11-47.33,34.53
		c-0.22,0.71-0.46,1.4-0.85,2.59c-3.68-0.8-7.38-1.6-11.07-2.39C79.41,159.78,114.9,138.73,145.21,146.97z"/>
</g>
</svg>
