<?xml version="1.0" encoding="utf-8"?>
<!-- Generator: Adobe Illustrator 24.2.1, SVG Export Plug-In . SVG Version: 6.00 Build 0)  -->
<svg version="1.1" id="Layer_1" xmlns="http://www.w3.org/2000/svg" xmlns:xlink="http://www.w3.org/1999/xlink" x="0px" y="0px"
	 viewBox="0 0 386 365" style="enable-background:new 0 0 386 365;" xml:space="preserve">
<g>
	<path d="M385,216.31c-1.78,5.28-2.92,10.9-5.46,15.79c-9.58,18.42-30.9,27.5-50.79,22.15c-19.91-5.36-33.48-23.46-33.08-44.12
		c0.4-20.68,14.61-38.06,34.86-42.64c0.97-0.22,1.93-0.5,2.87-0.74c4.39-30.69-12.56-52.42-34.85-56.38
		c-16.49-2.93-33.99,6.38-42.43,22.92c-3.64,7.13-5.26,14.7-5.25,22.71c0.05,40.42,0.03,80.84,0.02,121.26
		c-0.01,22.77-6.78,43.08-21.65,60.6c-30.62,36.08-86.06,35.99-116.61-0.15c-14.84-17.56-21.52-37.88-21.5-60.65
		c0-2.49-0.05-4.99-0.1-7.48c0-0.23-0.18-0.45-0.01-0.05c-3.93-1.79-7.75-2.86-10.75-5.05c-5.89-4.29-7.58-10.94-8.01-17.81
		c-0.34-5.47-0.33-10.98-0.15-16.46c0.09-2.62-0.8-3.59-3.26-4.32c-20.36-5.99-37.2-17.23-49.98-34.28
		C7.6,176.57,1.83,159.63,1.73,140.8c-0.02-4.1,0-8.21,0-12.73c4.23,0,8.26,0,12.75,0c0-1.74,0-3.07,0-4.4
		c0-25.45,0.18-50.9-0.06-76.35C14.26,30.56,24.51,17.4,38.99,13.99c1.19-0.28,2.45-1.62,3.06-2.78c4.53-8.74,13.8-12.89,22.9-10.09
		c8.74,2.69,14.61,11.35,13.54,20.01c-1.25,10.11-8.73,17.34-18.7,17.48c-7.38,0.1-13.32-3.1-16.95-9.68
		c-1.26-2.27-2.47-2.29-4.44-1.3c-6.84,3.44-10.95,9.02-11.01,16.57c-0.23,27.57-0.08,55.14-0.06,82.71c0,0.22,0.19,0.43,0.47,1.05
		c5.98,0,12.15,0,18.91,0c-1.63,20.03,2,37.97,18.1,51.25c11.31,9.33,24.51,12.89,38.98,12.38c24.97-0.89,55.56-20.19,51.43-63.49
		c4.06,0,8.1,0,12.34,0c0.12-1.37,0.28-2.32,0.27-3.28c-0.1-26.07-0.18-52.15-0.36-78.22c-0.07-10.31-4.7-16.94-13.71-19.75
		c-0.48,0.72-1.05,1.48-1.55,2.29c-4.53,7.49-13.48,11.03-21.65,8.54c-8.55-2.6-13.92-10.2-13.6-19.23
		c0.3-8.31,6.59-15.75,14.83-17.54c8.5-1.85,17.05,2.25,21.11,9.93c0.68,1.28,1.9,2.88,3.15,3.18
		c13.14,3.13,24.42,15.21,24.35,33.15c-0.1,25.45,0.12,50.9,0.2,76.35c0,1.34,0,2.69,0,4.31c4.28,0,8.23,0,12.41,0
		c1.94,22.99-2.31,44.07-16.02,62.77c-13.58,18.53-31.8,30.22-54.04,36.34c0,6.24,0.34,12.37-0.12,18.44
		c-0.32,4.15-1.31,8.38-2.79,12.27c-2.24,5.85-6.8,9.41-13.09,10.46c-1.72,0.29-2.96,0.49-3.04,2.81
		c-0.69,19.04,2.79,36.88,13.95,52.85c27.76,39.71,84.85,37.3,109.32-4.63c7.63-13.08,10.93-27.16,10.94-42.16
		c0-40.42-0.14-80.84,0.05-121.26c0.11-22.71,9.62-40.66,29.49-52.01c24.67-14.1,55.39-4.98,70.31,20.08
		c5.97,10.03,8.61,20.89,8.73,32.45c0.03,3.36,0.01,6.72,0.01,9.77c5.5,2.24,11.02,3.88,15.92,6.62
		c11.36,6.35,18.32,16.22,21.18,28.95c0.32,1.44,0.79,2.85,1.19,4.28C385,209.32,385,212.82,385,216.31z M14.81,140.87
		c-1.12,13.19,4.86,31.71,14.89,43.89c23.85,28.95,54.73,38.18,90.51,29.43c27.99-6.84,47.51-24.38,57.05-52.07
		c2.35-6.82,3.42-13.91,3.25-21.15c-4.43,0-8.47,0-12.49,0c-1.51,35.13-26.67,60.32-61.27,63.26c-16.94,1.44-32.81-2.39-46.68-12.48
		c-17.13-12.47-25.59-29.72-26.5-50.88C27.22,140.87,21.14,140.87,14.81,140.87z M340.24,242.82c17.46,0.01,31.93-14.38,31.97-31.81
		c0.04-17.33-14.48-31.9-31.89-31.98c-17.37-0.08-31.83,14.39-31.87,31.89C308.43,228.5,322.69,242.81,340.24,242.82z M84.49,230.08
		c0.37,6.4,0.47,13.07,1.22,19.67c0.5,4.35,2.8,5.91,7.14,5.99c3.36,0.06,6.71,0.02,10.07,0c3.12-0.02,5.63-1.49,6.01-4.51
		c0.89-7.15,1.28-14.36,1.84-21.16c-5.17,0-9.27,0-13.37,0C93.34,230.08,89.27,230.08,84.49,230.08z M65.47,19.39
		c0.02-3.43-2.62-6.19-6.02-6.32c-3.48-0.13-6.51,2.77-6.53,6.24c-0.02,3.36,2.71,6.17,6.09,6.27
		C62.64,25.69,65.45,22.99,65.47,19.39z M136.02,25.58c3.37-0.06,6.15-2.83,6.18-6.18c0.03-3.46-2.98-6.42-6.44-6.34
		c-3.39,0.08-6.08,2.83-6.11,6.24C129.62,22.91,132.4,25.65,136.02,25.58z"/>
	<path d="M340.27,230.03c-10.57-0.01-19-8.41-19.03-18.98c-0.04-10.52,8.35-19.07,18.88-19.23c10.44-0.17,19.43,8.79,19.34,19.27
		C359.37,221.53,350.76,230.04,340.27,230.03z M346.61,211.12c0.1-3.26-2.67-6.23-5.99-6.42c-3.5-0.2-6.51,2.6-6.59,6.13
		c-0.07,3.47,2.47,6.2,5.92,6.36C343.52,217.35,346.51,214.63,346.61,211.12z"/>
</g>
</svg>
